<?xml version="1.0" encoding="UTF-8" standalone="no"?>
<svg
   width="100%"
   height="100%"
   viewBox="0 0 4417 3259"
   version="1.1"
   xml:space="preserve"
   style="fill-rule:evenodd;clip-rule:evenodd;stroke-linejoin:round;stroke-miterlimit:1.41421;"
   id="svg856"
   sodipodi:docname="ferris.svg"
   inkscape:version="1.1.1 (c3084ef, 2021-09-22)"
   xmlns:inkscape="http://www.inkscape.org/namespaces/inkscape"
   xmlns:sodipodi="http://sodipodi.sourceforge.net/DTD/sodipodi-0.dtd"
   xmlns="http://www.w3.org/2000/svg"
   xmlns:svg="http://www.w3.org/2000/svg"><defs
   id="defs860"><inkscape:path-effect
     effect="powerclip"
     id="path-effect503"
     is_visible="true"
     lpeversion="1"
     inverse="true"
     flatten="false"
     hide_clip="false"
     message="Use fill-rule evenodd on &lt;b&gt;fill and stroke&lt;/b&gt; dialog if no flatten result after convert clip to paths." /><inkscape:path-effect
     effect="powerclip"
     id="path-effect483"
     is_visible="true"
     lpeversion="1"
     inverse="true"
     flatten="false"
     hide_clip="false"
     message="Use fill-rule evenodd on &lt;b&gt;fill and stroke&lt;/b&gt; dialog if no flatten result after convert clip to paths." /><inkscape:path-effect
     effect="powerclip"
     id="path-effect471"
     is_visible="true"
     lpeversion="1"
     inverse="true"
     flatten="false"
     hide_clip="false"
     message="Use fill-rule evenodd on &lt;b&gt;fill and stroke&lt;/b&gt; dialog if no flatten result after convert clip to paths." /><inkscape:path-effect
     effect="powerclip"
     id="path-effect442"
     is_visible="true"
     lpeversion="1"
     inverse="true"
     flatten="false"
     hide_clip="false"
     message="Use fill-rule evenodd on &lt;b&gt;fill and stroke&lt;/b&gt; dialog if no flatten result after convert clip to paths." /><inkscape:path-effect
     effect="powerclip"
     id="path-effect387"
     is_visible="true"
     lpeversion="1"
     inverse="true"
     flatten="false"
     hide_clip="false"
     message="Use fill-rule evenodd on &lt;b&gt;fill and stroke&lt;/b&gt; dialog if no flatten result after convert clip to paths." /><inkscape:path-effect
     effect="powerclip"
     id="path-effect344"
     is_visible="true"
     lpeversion="1"
     inverse="true"
     flatten="false"
     hide_clip="false"
     message="Use fill-rule evenodd on &lt;b&gt;fill and stroke&lt;/b&gt; dialog if no flatten result after convert clip to paths." /><clipPath
     clipPathUnits="userSpaceOnUse"
     id="clipPath340"><path
       style="display:none;fill:#ecf0f1"
       d="M 29,9.5 C 16.35,9.5 6,18.42 6,27.878 v 12.663 c 5.594,4.14 14.044,7.959 23.5,7.959 8.909,0 16.924,-3.524 22.5,-7.256 V 27.878 C 52,18.42 41.65,9.5 29,9.5 Z"
       id="path342" /><path
       id="lpe_path-effect344"
       style="fill:#ecf0f1"
       class="powerclip"
       d="M 1,-2.474 H 57 V 56.5 H 1 Z M 29,9.5 C 16.35,9.5 6,18.42 6,27.878 v 12.663 c 5.594,4.14 14.044,7.959 23.5,7.959 8.909,0 16.924,-3.524 22.5,-7.256 V 27.878 C 52,18.42 41.65,9.5 29,9.5 Z" /></clipPath><clipPath
     clipPathUnits="userSpaceOnUse"
     id="clipPath383"><path
       style="display:block;fill:#38454f"
       d="m 29,12.716495 c -12.65,0 -23,7.548 -23,15.551001 v 10.714 c 5.594,3.503 14.044,6.735 23.5,6.735 8.909,0 16.924,-2.982 22.5,-6.14 v -11.309 C 52,20.264495 41.65,12.716495 29,12.716495 Z"
       id="path385" /></clipPath><clipPath
     clipPathUnits="userSpaceOnUse"
     id="clipPath438"><path
       style="display:none;fill:#ecf0f1"
       d="M 29,9.5 C 16.35,9.5 6,18.42 6,27.878 v 12.663 c 5.594,4.14 14.044,7.959 23.5,7.959 8.909,0 16.924,-3.524 22.5,-7.256 V 27.878 C 52,18.42 41.65,9.5 29,9.5 Z"
       id="path440"
       clip-path="url(#clipPath383)"
       inkscape:original-d="M 29,9.5 C 16.35,9.5 6,18.42 6,27.878 v 12.663 c 5.594,4.14 14.044,7.959 23.5,7.959 8.909,0 16.924,-3.524 22.5,-7.256 V 27.878 C 52,18.42 41.65,9.5 29,9.5 Z"
       inkscape:path-effect="#path-effect387" /><path
       id="lpe_path-effect442"
       style="fill:#ecf0f1"
       class="powerclip"
       d="M 31,1.576 H 48.857 V 19.5 H 31 Z M 29,9.5 C 16.35,9.5 6,18.42 6,27.878 v 12.663 c 5.594,4.14 14.044,7.959 23.5,7.959 8.909,0 16.924,-3.524 22.5,-7.256 V 27.878 C 52,18.42 41.65,9.5 29,9.5 Z" /></clipPath><clipPath
     clipPathUnits="userSpaceOnUse"
     id="clipPath383-6"><path
       style="display:none;fill:#38454f"
       d="m 29,12.716495 c -12.65,0 -23,7.548 -23,15.551001 v 10.714 c 5.594,3.503 14.044,6.735 23.5,6.735 8.909,0 16.924,-2.982 22.5,-6.14 v -11.309 C 52,20.264495 41.65,12.716495 29,12.716495 Z"
       id="path385-5" /><path
       id="lpe_path-effect387"
       style="fill:#38454f"
       class="powerclip"
       d="m 1,4.5 h 56 v 49 H 1 Z" /></clipPath><clipPath
     clipPathUnits="userSpaceOnUse"
     id="clipath_lpe_path-effect471"><path
       style="display:none;fill:#38454f"
       d="m 29,12.716495 c -12.65,0 -23,7.548 -23,15.551001 v 10.714 c 5.594,3.503 14.044,6.735 23.5,6.735 8.909,0 16.924,-2.982 22.5,-6.14 v -11.309 C 52,20.264495 41.65,12.716495 29,12.716495 Z"
       id="path473" /><path
       id="lpe_path-effect471"
       style="display:block;fill:#38454f"
       class="powerclip"
       d="m 1,4.5 h 56 v 49 H 1 Z m 28,8.216495 c -12.65,0 -23,7.548 -23,15.551001 v 10.714 c 5.594,3.503 14.044,6.735 23.5,6.735 8.909,0 16.924,-2.982 22.5,-6.14 v -11.309 C 52,20.264495 41.65,12.716495 29,12.716495 Z" /></clipPath><clipPath
     clipPathUnits="userSpaceOnUse"
     id="clipPath479"><path
       style="display:none;fill:#ecf0f1"
       d="M 29,9.5 C 16.35,9.5 6,18.42 6,27.878 v 12.663 c 5.594,4.14 14.044,7.959 23.5,7.959 8.909,0 16.924,-3.524 22.5,-7.256 V 27.878 C 52,18.42 41.65,9.5 29,9.5 Z"
       id="path481"
       clip-path="url(#clipath_lpe_path-effect471)"
       inkscape:original-d="M 29,9.5 C 16.35,9.5 6,18.42 6,27.878 v 12.663 c 5.594,4.14 14.044,7.959 23.5,7.959 8.909,0 16.924,-3.524 22.5,-7.256 V 27.878 C 52,18.42 41.65,9.5 29,9.5 Z"
       inkscape:path-effect="#path-effect471" /><path
       id="lpe_path-effect483"
       style="fill:#ecf0f1"
       class="powerclip"
       d="M 9.143,1.576 H 27 V 19.5 H 9.143 Z M 29,9.5 C 16.35,9.5 6,18.42 6,27.878 v 12.663 c 5.594,4.14 14.044,7.959 23.5,7.959 8.909,0 16.924,-3.524 22.5,-7.256 V 27.878 C 52,18.42 41.65,9.5 29,9.5 Z" /></clipPath><clipPath
     clipPathUnits="userSpaceOnUse"
     id="clipPath383-7"><path
       style="display:none;fill:#38454f"
       d="m 29,12.716495 c -12.65,0 -23,7.548 -23,15.551001 v 10.714 c 5.594,3.503 14.044,6.735 23.5,6.735 8.909,0 16.924,-2.982 22.5,-6.14 v -11.309 C 52,20.264495 41.65,12.716495 29,12.716495 Z"
       id="path385-6" /><path
       id="lpe_path-effect387-2"
       style="fill:#38454f"
       class="powerclip"
       d="m 1,4.5 h 56 v 49 H 1 Z m 28,8.216495 c -12.65,0 -23,7.548 -23,15.551001 v 10.714 c 5.594,3.503 14.044,6.735 23.5,6.735 8.909,0 16.924,-2.982 22.5,-6.14 v -11.309 C 52,20.264495 41.65,12.716495 29,12.716495 Z" /></clipPath><clipPath
     clipPathUnits="userSpaceOnUse"
     id="clipath_lpe_path-effect503"><path
       style="display:none;fill:#38454f"
       d="m 29,12.716495 c -12.65,0 -23,7.548 -23,15.551001 v 10.714 c 5.594,3.503 14.044,6.735 23.5,6.735 8.909,0 16.924,-2.982 22.5,-6.14 v -11.309 C 52,20.264495 41.65,12.716495 29,12.716495 Z"
       id="path505" /><path
       id="lpe_path-effect503"
       style="fill:#38454f"
       class="powerclip"
       d="m 1,4.5 h 56 v 49 H 1 Z m 28,8.216495 c -12.65,0 -23,7.548 -23,15.551001 v 10.714 c 5.594,3.503 14.044,6.735 23.5,6.735 8.909,0 16.924,-2.982 22.5,-6.14 v -11.309 C 52,20.264495 41.65,12.716495 29,12.716495 Z" /></clipPath><clipPath
     clipPathUnits="userSpaceOnUse"
     id="clipPath340-1"><path
       style="display:none;fill:#ecf0f1"
       d="M 29,9.5 C 16.35,9.5 6,18.42 6,27.878 v 12.663 c 5.594,4.14 14.044,7.959 23.5,7.959 8.909,0 16.924,-3.524 22.5,-7.256 V 27.878 C 52,18.42 41.65,9.5 29,9.5 Z"
       id="path342-5" /><path
       id="lpe_path-effect344-5"
       style="fill:#ecf0f1"
       class="powerclip"
       d="M 1,-2.474 H 57 V 56.5 H 1 Z M 29,9.5 C 16.35,9.5 6,18.42 6,27.878 v 12.663 c 5.594,4.14 14.044,7.959 23.5,7.959 8.909,0 16.924,-3.524 22.5,-7.256 V 27.878 C 52,18.42 41.65,9.5 29,9.5 Z" /></clipPath><clipPath
     clipPathUnits="userSpaceOnUse"
     id="clipPath383-5"><path
       style="display:block;fill:#38454f"
       d="m 29,12.716495 c -12.65,0 -23,7.548 -23,15.551001 v 10.714 c 5.594,3.503 14.044,6.735 23.5,6.735 8.909,0 16.924,-2.982 22.5,-6.14 v -11.309 C 52,20.264495 41.65,12.716495 29,12.716495 Z"
       id="path385-8" /></clipPath><clipPath
     clipPathUnits="userSpaceOnUse"
     id="clipPath438-2"><path
       style="display:none;fill:#ecf0f1"
       d="M 29,9.5 C 16.35,9.5 6,18.42 6,27.878 v 12.663 c 5.594,4.14 14.044,7.959 23.5,7.959 8.909,0 16.924,-3.524 22.5,-7.256 V 27.878 C 52,18.42 41.65,9.5 29,9.5 Z"
       id="path440-9"
       clip-path="url(#clipPath383-5)"
       inkscape:original-d="M 29,9.5 C 16.35,9.5 6,18.42 6,27.878 v 12.663 c 5.594,4.14 14.044,7.959 23.5,7.959 8.909,0 16.924,-3.524 22.5,-7.256 V 27.878 C 52,18.42 41.65,9.5 29,9.5 Z"
       inkscape:path-effect="#path-effect387" /><path
       id="lpe_path-effect442-8"
       style="fill:#ecf0f1"
       class="powerclip"
       d="M 31,1.576 H 48.857 V 19.5 H 31 Z M 29,9.5 C 16.35,9.5 6,18.42 6,27.878 v 12.663 c 5.594,4.14 14.044,7.959 23.5,7.959 8.909,0 16.924,-3.524 22.5,-7.256 V 27.878 C 52,18.42 41.65,9.5 29,9.5 Z" /></clipPath><clipPath
     clipPathUnits="userSpaceOnUse"
     id="clipPath383-6-2"><path
       style="display:none;fill:#38454f"
       d="m 29,12.716495 c -12.65,0 -23,7.548 -23,15.551001 v 10.714 c 5.594,3.503 14.044,6.735 23.5,6.735 8.909,0 16.924,-2.982 22.5,-6.14 v -11.309 C 52,20.264495 41.65,12.716495 29,12.716495 Z"
       id="path385-5-0" /><path
       id="lpe_path-effect387-7"
       style="fill:#38454f"
       class="powerclip"
       d="m 1,4.5 h 56 v 49 H 1 Z" /></clipPath><clipPath
     clipPathUnits="userSpaceOnUse"
     id="clipath_lpe_path-effect471-4"><path
       style="display:none;fill:#38454f"
       d="m 29,12.716495 c -12.65,0 -23,7.548 -23,15.551001 v 10.714 c 5.594,3.503 14.044,6.735 23.5,6.735 8.909,0 16.924,-2.982 22.5,-6.14 v -11.309 C 52,20.264495 41.65,12.716495 29,12.716495 Z"
       id="path473-8" /><path
       id="lpe_path-effect471-5"
       style="display:block;fill:#38454f"
       class="powerclip"
       d="m 1,4.5 h 56 v 49 H 1 Z m 28,8.216495 c -12.65,0 -23,7.548 -23,15.551001 v 10.714 c 5.594,3.503 14.044,6.735 23.5,6.735 8.909,0 16.924,-2.982 22.5,-6.14 v -11.309 C 52,20.264495 41.65,12.716495 29,12.716495 Z" /></clipPath><clipPath
     clipPathUnits="userSpaceOnUse"
     id="clipPath479-8"><path
       style="display:none;fill:#ecf0f1"
       d="M 29,9.5 C 16.35,9.5 6,18.42 6,27.878 v 12.663 c 5.594,4.14 14.044,7.959 23.5,7.959 8.909,0 16.924,-3.524 22.5,-7.256 V 27.878 C 52,18.42 41.65,9.5 29,9.5 Z"
       id="path481-3"
       clip-path="url(#clipath_lpe_path-effect471-4)"
       inkscape:original-d="M 29,9.5 C 16.35,9.5 6,18.42 6,27.878 v 12.663 c 5.594,4.14 14.044,7.959 23.5,7.959 8.909,0 16.924,-3.524 22.5,-7.256 V 27.878 C 52,18.42 41.65,9.5 29,9.5 Z"
       inkscape:path-effect="#path-effect471" /><path
       id="lpe_path-effect483-0"
       style="fill:#ecf0f1"
       class="powerclip"
       d="M 9.143,1.576 H 27 V 19.5 H 9.143 Z M 29,9.5 C 16.35,9.5 6,18.42 6,27.878 v 12.663 c 5.594,4.14 14.044,7.959 23.5,7.959 8.909,0 16.924,-3.524 22.5,-7.256 V 27.878 C 52,18.42 41.65,9.5 29,9.5 Z" /></clipPath><clipPath
     clipPathUnits="userSpaceOnUse"
     id="clipPath383-7-6"><path
       style="display:none;fill:#38454f"
       d="m 29,12.716495 c -12.65,0 -23,7.548 -23,15.551001 v 10.714 c 5.594,3.503 14.044,6.735 23.5,6.735 8.909,0 16.924,-2.982 22.5,-6.14 v -11.309 C 52,20.264495 41.65,12.716495 29,12.716495 Z"
       id="path385-6-2" /><path
       id="lpe_path-effect387-2-2"
       style="fill:#38454f"
       class="powerclip"
       d="m 1,4.5 h 56 v 49 H 1 Z m 28,8.216495 c -12.65,0 -23,7.548 -23,15.551001 v 10.714 c 5.594,3.503 14.044,6.735 23.5,6.735 8.909,0 16.924,-2.982 22.5,-6.14 v -11.309 C 52,20.264495 41.65,12.716495 29,12.716495 Z" /></clipPath><clipPath
     clipPathUnits="userSpaceOnUse"
     id="clipath_lpe_path-effect503-5"><path
       style="display:none;fill:#38454f"
       d="m 29,12.716495 c -12.65,0 -23,7.548 -23,15.551001 v 10.714 c 5.594,3.503 14.044,6.735 23.5,6.735 8.909,0 16.924,-2.982 22.5,-6.14 v -11.309 C 52,20.264495 41.65,12.716495 29,12.716495 Z"
       id="path505-2" /><path
       id="lpe_path-effect503-2"
       style="fill:#38454f"
       class="powerclip"
       d="m 1,4.5 h 56 v 49 H 1 Z m 28,8.216495 c -12.65,0 -23,7.548 -23,15.551001 v 10.714 c 5.594,3.503 14.044,6.735 23.5,6.735 8.909,0 16.924,-2.982 22.5,-6.14 v -11.309 C 52,20.264495 41.65,12.716495 29,12.716495 Z" /></clipPath><clipPath
     clipPathUnits="userSpaceOnUse"
     id="clipPath340-6"><path
       id="lpe_path-effect344-3"
       style="fill:#ecf0f1"
       class="powerclip"
       d="M 1,-2.474 H 57 V 56.5 H 1 Z M 29,9.5 C 16.35,9.5 6,18.42 6,27.878 v 12.663 c 5.594,4.14 14.044,7.959 23.5,7.959 8.909,0 16.924,-3.524 22.5,-7.256 V 27.878 C 52,18.42 41.65,9.5 29,9.5 Z" /></clipPath><clipPath
     clipPathUnits="userSpaceOnUse"
     id="clipPath383-2"><path
       style="display:block;fill:#38454f"
       d="m 29,12.716495 c -12.65,0 -23,7.548 -23,15.551001 v 10.714 c 5.594,3.503 14.044,6.735 23.5,6.735 8.909,0 16.924,-2.982 22.5,-6.14 v -11.309 C 52,20.264495 41.65,12.716495 29,12.716495 Z"
       id="path385-68" /></clipPath><clipPath
     clipPathUnits="userSpaceOnUse"
     id="clipPath438-9"><path
       style="display:none;fill:#ecf0f1"
       d="M 29,9.5 C 16.35,9.5 6,18.42 6,27.878 v 12.663 c 5.594,4.14 14.044,7.959 23.5,7.959 8.909,0 16.924,-3.524 22.5,-7.256 V 27.878 C 52,18.42 41.65,9.5 29,9.5 Z"
       id="path440-1"
       clip-path="url(#clipPath383-2)"
       inkscape:original-d="M 29,9.5 C 16.35,9.5 6,18.42 6,27.878 v 12.663 c 5.594,4.14 14.044,7.959 23.5,7.959 8.909,0 16.924,-3.524 22.5,-7.256 V 27.878 C 52,18.42 41.65,9.5 29,9.5 Z"
       inkscape:path-effect="#path-effect387" /><path
       id="lpe_path-effect442-4"
       style="fill:#ecf0f1"
       class="powerclip"
       d="M 31,1.576 H 48.857 V 19.5 H 31 Z M 29,9.5 C 16.35,9.5 6,18.42 6,27.878 v 12.663 c 5.594,4.14 14.044,7.959 23.5,7.959 8.909,0 16.924,-3.524 22.5,-7.256 V 27.878 C 52,18.42 41.65,9.5 29,9.5 Z" /></clipPath><clipPath
     clipPathUnits="userSpaceOnUse"
     id="clipPath383-6-8"><path
       style="display:none;fill:#38454f"
       d="m 29,12.716495 c -12.65,0 -23,7.548 -23,15.551001 v 10.714 c 5.594,3.503 14.044,6.735 23.5,6.735 8.909,0 16.924,-2.982 22.5,-6.14 v -11.309 C 52,20.264495 41.65,12.716495 29,12.716495 Z"
       id="path385-5-8" /><path
       id="lpe_path-effect387-71"
       style="fill:#38454f"
       class="powerclip"
       d="m 1,4.5 h 56 v 49 H 1 Z" /></clipPath><clipPath
     clipPathUnits="userSpaceOnUse"
     id="clipath_lpe_path-effect471-9"><path
       style="display:none;fill:#38454f"
       d="m 29,12.716495 c -12.65,0 -23,7.548 -23,15.551001 v 10.714 c 5.594,3.503 14.044,6.735 23.5,6.735 8.909,0 16.924,-2.982 22.5,-6.14 v -11.309 C 52,20.264495 41.65,12.716495 29,12.716495 Z"
       id="path473-3" /><path
       id="lpe_path-effect471-1"
       style="display:block;fill:#38454f"
       class="powerclip"
       d="m 1,4.5 h 56 v 49 H 1 Z m 28,8.216495 c -12.65,0 -23,7.548 -23,15.551001 v 10.714 c 5.594,3.503 14.044,6.735 23.5,6.735 8.909,0 16.924,-2.982 22.5,-6.14 v -11.309 C 52,20.264495 41.65,12.716495 29,12.716495 Z" /></clipPath><clipPath
     clipPathUnits="userSpaceOnUse"
     id="clipPath479-1"><path
       style="display:none;fill:#ecf0f1"
       d="M 29,9.5 C 16.35,9.5 6,18.42 6,27.878 v 12.663 c 5.594,4.14 14.044,7.959 23.5,7.959 8.909,0 16.924,-3.524 22.5,-7.256 V 27.878 C 52,18.42 41.65,9.5 29,9.5 Z"
       id="path481-4"
       clip-path="url(#clipath_lpe_path-effect471-9)"
       inkscape:original-d="M 29,9.5 C 16.35,9.5 6,18.42 6,27.878 v 12.663 c 5.594,4.14 14.044,7.959 23.5,7.959 8.909,0 16.924,-3.524 22.5,-7.256 V 27.878 C 52,18.42 41.65,9.5 29,9.5 Z"
       inkscape:path-effect="#path-effect471" /><path
       id="lpe_path-effect483-9"
       style="fill:#ecf0f1"
       class="powerclip"
       d="M 9.143,1.576 H 27 V 19.5 H 9.143 Z M 29,9.5 C 16.35,9.5 6,18.42 6,27.878 v 12.663 c 5.594,4.14 14.044,7.959 23.5,7.959 8.909,0 16.924,-3.524 22.5,-7.256 V 27.878 C 52,18.42 41.65,9.5 29,9.5 Z" /></clipPath><clipPath
     clipPathUnits="userSpaceOnUse"
     id="clipPath383-7-5"><path
       style="display:none;fill:#38454f"
       d="m 29,12.716495 c -12.65,0 -23,7.548 -23,15.551001 v 10.714 c 5.594,3.503 14.044,6.735 23.5,6.735 8.909,0 16.924,-2.982 22.5,-6.14 v -11.309 C 52,20.264495 41.65,12.716495 29,12.716495 Z"
       id="path385-6-9" /><path
       id="lpe_path-effect387-2-0"
       style="fill:#38454f"
       class="powerclip"
       d="m 1,4.5 h 56 v 49 H 1 Z m 28,8.216495 c -12.65,0 -23,7.548 -23,15.551001 v 10.714 c 5.594,3.503 14.044,6.735 23.5,6.735 8.909,0 16.924,-2.982 22.5,-6.14 v -11.309 C 52,20.264495 41.65,12.716495 29,12.716495 Z" /></clipPath><clipPath
     clipPathUnits="userSpaceOnUse"
     id="clipath_lpe_path-effect503-9"><path
       style="display:none;fill:#38454f"
       d="m 29,12.716495 c -12.65,0 -23,7.548 -23,15.551001 v 10.714 c 5.594,3.503 14.044,6.735 23.5,6.735 8.909,0 16.924,-2.982 22.5,-6.14 v -11.309 C 52,20.264495 41.65,12.716495 29,12.716495 Z"
       id="path505-3" /><path
       id="lpe_path-effect503-4"
       style="fill:#38454f"
       class="powerclip"
       d="m 1,4.5 h 56 v 49 H 1 Z m 28,8.216495 c -12.65,0 -23,7.548 -23,15.551001 v 10.714 c 5.594,3.503 14.044,6.735 23.5,6.735 8.909,0 16.924,-2.982 22.5,-6.14 v -11.309 C 52,20.264495 41.65,12.716495 29,12.716495 Z" /></clipPath><clipPath
     clipPathUnits="userSpaceOnUse"
     id="clipPath340-64"><path
       id="lpe_path-effect344-7"
       style="fill:#ecf0f1"
       class="powerclip"
       d="M 1,-2.474 H 57 V 56.5 H 1 Z M 29,9.5 C 16.35,9.5 6,18.42 6,27.878 v 12.663 c 5.594,4.14 14.044,7.959 23.5,7.959 8.909,0 16.924,-3.524 22.5,-7.256 V 27.878 C 52,18.42 41.65,9.5 29,9.5 Z" /></clipPath><clipPath
     clipPathUnits="userSpaceOnUse"
     id="clipPath383-8"><path
       style="display:block;fill:#38454f"
       d="m 29,12.716495 c -12.65,0 -23,7.548 -23,15.551001 v 10.714 c 5.594,3.503 14.044,6.735 23.5,6.735 8.909,0 16.924,-2.982 22.5,-6.14 v -11.309 C 52,20.264495 41.65,12.716495 29,12.716495 Z"
       id="path385-4" /></clipPath><clipPath
     clipPathUnits="userSpaceOnUse"
     id="clipPath438-0"><path
       style="display:none;fill:#ecf0f1"
       d="M 29,9.5 C 16.35,9.5 6,18.42 6,27.878 v 12.663 c 5.594,4.14 14.044,7.959 23.5,7.959 8.909,0 16.924,-3.524 22.5,-7.256 V 27.878 C 52,18.42 41.65,9.5 29,9.5 Z"
       id="path440-0"
       clip-path="url(#clipPath383-8)"
       inkscape:original-d="M 29,9.5 C 16.35,9.5 6,18.42 6,27.878 v 12.663 c 5.594,4.14 14.044,7.959 23.5,7.959 8.909,0 16.924,-3.524 22.5,-7.256 V 27.878 C 52,18.42 41.65,9.5 29,9.5 Z"
       inkscape:path-effect="#path-effect387" /><path
       id="lpe_path-effect442-6"
       style="fill:#ecf0f1"
       class="powerclip"
       d="M 31,1.576 H 48.857 V 19.5 H 31 Z M 29,9.5 C 16.35,9.5 6,18.42 6,27.878 v 12.663 c 5.594,4.14 14.044,7.959 23.5,7.959 8.909,0 16.924,-3.524 22.5,-7.256 V 27.878 C 52,18.42 41.65,9.5 29,9.5 Z" /></clipPath><clipPath
     clipPathUnits="userSpaceOnUse"
     id="clipPath383-6-24"><path
       style="display:none;fill:#38454f"
       d="m 29,12.716495 c -12.65,0 -23,7.548 -23,15.551001 v 10.714 c 5.594,3.503 14.044,6.735 23.5,6.735 8.909,0 16.924,-2.982 22.5,-6.14 v -11.309 C 52,20.264495 41.65,12.716495 29,12.716495 Z"
       id="path385-5-7" /><path
       id="lpe_path-effect387-4"
       style="fill:#38454f"
       class="powerclip"
       d="m 1,4.5 h 56 v 49 H 1 Z" /></clipPath><clipPath
     clipPathUnits="userSpaceOnUse"
     id="clipath_lpe_path-effect471-1"><path
       style="display:none;fill:#38454f"
       d="m 29,12.716495 c -12.65,0 -23,7.548 -23,15.551001 v 10.714 c 5.594,3.503 14.044,6.735 23.5,6.735 8.909,0 16.924,-2.982 22.5,-6.14 v -11.309 C 52,20.264495 41.65,12.716495 29,12.716495 Z"
       id="path473-85" /><path
       id="lpe_path-effect471-8"
       style="display:block;fill:#38454f"
       class="powerclip"
       d="m 1,4.5 h 56 v 49 H 1 Z m 28,8.216495 c -12.65,0 -23,7.548 -23,15.551001 v 10.714 c 5.594,3.503 14.044,6.735 23.5,6.735 8.909,0 16.924,-2.982 22.5,-6.14 v -11.309 C 52,20.264495 41.65,12.716495 29,12.716495 Z" /></clipPath><clipPath
     clipPathUnits="userSpaceOnUse"
     id="clipPath479-9"><path
       style="display:none;fill:#ecf0f1"
       d="M 29,9.5 C 16.35,9.5 6,18.42 6,27.878 v 12.663 c 5.594,4.14 14.044,7.959 23.5,7.959 8.909,0 16.924,-3.524 22.5,-7.256 V 27.878 C 52,18.42 41.65,9.5 29,9.5 Z"
       id="path481-9"
       clip-path="url(#clipath_lpe_path-effect471-1)"
       inkscape:original-d="M 29,9.5 C 16.35,9.5 6,18.42 6,27.878 v 12.663 c 5.594,4.14 14.044,7.959 23.5,7.959 8.909,0 16.924,-3.524 22.5,-7.256 V 27.878 C 52,18.42 41.65,9.5 29,9.5 Z"
       inkscape:path-effect="#path-effect471" /><path
       id="lpe_path-effect483-93"
       style="fill:#ecf0f1"
       class="powerclip"
       d="M 9.143,1.576 H 27 V 19.5 H 9.143 Z M 29,9.5 C 16.35,9.5 6,18.42 6,27.878 v 12.663 c 5.594,4.14 14.044,7.959 23.5,7.959 8.909,0 16.924,-3.524 22.5,-7.256 V 27.878 C 52,18.42 41.65,9.5 29,9.5 Z" /></clipPath><clipPath
     clipPathUnits="userSpaceOnUse"
     id="clipPath383-7-3"><path
       style="display:none;fill:#38454f"
       d="m 29,12.716495 c -12.65,0 -23,7.548 -23,15.551001 v 10.714 c 5.594,3.503 14.044,6.735 23.5,6.735 8.909,0 16.924,-2.982 22.5,-6.14 v -11.309 C 52,20.264495 41.65,12.716495 29,12.716495 Z"
       id="path385-6-7" /><path
       id="lpe_path-effect387-2-7"
       style="fill:#38454f"
       class="powerclip"
       d="m 1,4.5 h 56 v 49 H 1 Z m 28,8.216495 c -12.65,0 -23,7.548 -23,15.551001 v 10.714 c 5.594,3.503 14.044,6.735 23.5,6.735 8.909,0 16.924,-2.982 22.5,-6.14 v -11.309 C 52,20.264495 41.65,12.716495 29,12.716495 Z" /></clipPath><clipPath
     clipPathUnits="userSpaceOnUse"
     id="clipath_lpe_path-effect503-3"><path
       style="display:none;fill:#38454f"
       d="m 29,12.716495 c -12.65,0 -23,7.548 -23,15.551001 v 10.714 c 5.594,3.503 14.044,6.735 23.5,6.735 8.909,0 16.924,-2.982 22.5,-6.14 v -11.309 C 52,20.264495 41.65,12.716495 29,12.716495 Z"
       id="path505-25" /><path
       id="lpe_path-effect503-6"
       style="fill:#38454f"
       class="powerclip"
       d="m 1,4.5 h 56 v 49 H 1 Z m 28,8.216495 c -12.65,0 -23,7.548 -23,15.551001 v 10.714 c 5.594,3.503 14.044,6.735 23.5,6.735 8.909,0 16.924,-2.982 22.5,-6.14 v -11.309 C 52,20.264495 41.65,12.716495 29,12.716495 Z" /></clipPath><clipPath
     clipPathUnits="userSpaceOnUse"
     id="clipPath340-61"><path
       id="lpe_path-effect344-4"
       style="fill:#ecf0f1"
       class="powerclip"
       d="M 1,-2.474 H 57 V 56.5 H 1 Z M 29,9.5 C 16.35,9.5 6,18.42 6,27.878 v 12.663 c 5.594,4.14 14.044,7.959 23.5,7.959 8.909,0 16.924,-3.524 22.5,-7.256 V 27.878 C 52,18.42 41.65,9.5 29,9.5 Z" /></clipPath><clipPath
     clipPathUnits="userSpaceOnUse"
     id="clipPath383-0"><path
       style="display:block;fill:#38454f"
       d="m 29,12.716495 c -12.65,0 -23,7.548 -23,15.551001 v 10.714 c 5.594,3.503 14.044,6.735 23.5,6.735 8.909,0 16.924,-2.982 22.5,-6.14 v -11.309 C 52,20.264495 41.65,12.716495 29,12.716495 Z"
       id="path385-81" /></clipPath><clipPath
     clipPathUnits="userSpaceOnUse"
     id="clipPath438-03"><path
       id="lpe_path-effect442-1"
       style="fill:#ecf0f1"
       class="powerclip"
       d="M 31,1.576 H 48.857 V 19.5 H 31 Z M 29,9.5 C 16.35,9.5 6,18.42 6,27.878 v 12.663 c 5.594,4.14 14.044,7.959 23.5,7.959 8.909,0 16.924,-3.524 22.5,-7.256 V 27.878 C 52,18.42 41.65,9.5 29,9.5 Z" /></clipPath><clipPath
     clipPathUnits="userSpaceOnUse"
     id="clipPath383-6-1"><path
       style="display:none;fill:#38454f"
       d="m 29,12.716495 c -12.65,0 -23,7.548 -23,15.551001 v 10.714 c 5.594,3.503 14.044,6.735 23.5,6.735 8.909,0 16.924,-2.982 22.5,-6.14 v -11.309 C 52,20.264495 41.65,12.716495 29,12.716495 Z"
       id="path385-5-5" /></clipPath><clipPath
     clipPathUnits="userSpaceOnUse"
     id="clipath_lpe_path-effect471-0"><path
       style="display:block;fill:#38454f"
       d="m 29,12.716495 c -12.65,0 -23,7.548 -23,15.551001 v 10.714 c 5.594,3.503 14.044,6.735 23.5,6.735 8.909,0 16.924,-2.982 22.5,-6.14 v -11.309 C 52,20.264495 41.65,12.716495 29,12.716495 Z"
       id="path473-84" /></clipPath><clipPath
     clipPathUnits="userSpaceOnUse"
     id="clipPath479-93"><path
       id="lpe_path-effect483-05"
       style="fill:#ecf0f1"
       class="powerclip"
       d="M 9.143,1.576 H 27 V 19.5 H 9.143 Z M 29,9.5 C 16.35,9.5 6,18.42 6,27.878 v 12.663 c 5.594,4.14 14.044,7.959 23.5,7.959 8.909,0 16.924,-3.524 22.5,-7.256 V 27.878 C 52,18.42 41.65,9.5 29,9.5 Z" /></clipPath><clipPath
     clipPathUnits="userSpaceOnUse"
     id="clipPath383-7-2"><path
       style="display:none;fill:#38454f"
       d="m 29,12.716495 c -12.65,0 -23,7.548 -23,15.551001 v 10.714 c 5.594,3.503 14.044,6.735 23.5,6.735 8.909,0 16.924,-2.982 22.5,-6.14 v -11.309 C 52,20.264495 41.65,12.716495 29,12.716495 Z"
       id="path385-6-3" /><path
       id="lpe_path-effect387-2-8"
       style="fill:#38454f"
       class="powerclip"
       d="m 1,4.5 h 56 v 49 H 1 Z m 28,8.216495 c -12.65,0 -23,7.548 -23,15.551001 v 10.714 c 5.594,3.503 14.044,6.735 23.5,6.735 8.909,0 16.924,-2.982 22.5,-6.14 v -11.309 C 52,20.264495 41.65,12.716495 29,12.716495 Z" /></clipPath><clipPath
     clipPathUnits="userSpaceOnUse"
     id="clipath_lpe_path-effect503-7"><path
       style="display:none;fill:#38454f"
       d="m 29,12.716495 c -12.65,0 -23,7.548 -23,15.551001 v 10.714 c 5.594,3.503 14.044,6.735 23.5,6.735 8.909,0 16.924,-2.982 22.5,-6.14 v -11.309 C 52,20.264495 41.65,12.716495 29,12.716495 Z"
       id="path505-8" /><path
       id="lpe_path-effect503-0"
       style="fill:#38454f"
       class="powerclip"
       d="m 1,4.5 h 56 v 49 H 1 Z m 28,8.216495 c -12.65,0 -23,7.548 -23,15.551001 v 10.714 c 5.594,3.503 14.044,6.735 23.5,6.735 8.909,0 16.924,-2.982 22.5,-6.14 v -11.309 C 52,20.264495 41.65,12.716495 29,12.716495 Z" /></clipPath><clipPath
     clipPathUnits="userSpaceOnUse"
     id="clipPath340-3"><path
       id="lpe_path-effect344-48"
       style="fill:#ecf0f1"
       class="powerclip"
       d="M 1,-2.474 H 57 V 56.5 H 1 Z M 29,9.5 C 16.35,9.5 6,18.42 6,27.878 v 12.663 c 5.594,4.14 14.044,7.959 23.5,7.959 8.909,0 16.924,-3.524 22.5,-7.256 V 27.878 C 52,18.42 41.65,9.5 29,9.5 Z" /></clipPath><clipPath
     clipPathUnits="userSpaceOnUse"
     id="clipPath383-61"><path
       style="display:block;fill:#38454f"
       d="m 29,12.716495 c -12.65,0 -23,7.548 -23,15.551001 v 10.714 c 5.594,3.503 14.044,6.735 23.5,6.735 8.909,0 16.924,-2.982 22.5,-6.14 v -11.309 C 52,20.264495 41.65,12.716495 29,12.716495 Z"
       id="path385-50" /></clipPath><clipPath
     clipPathUnits="userSpaceOnUse"
     id="clipPath438-6"><path
       id="lpe_path-effect442-5"
       style="fill:#ecf0f1"
       class="powerclip"
       d="M 31,1.576 H 48.857 V 19.5 H 31 Z M 29,9.5 C 16.35,9.5 6,18.42 6,27.878 v 12.663 c 5.594,4.14 14.044,7.959 23.5,7.959 8.909,0 16.924,-3.524 22.5,-7.256 V 27.878 C 52,18.42 41.65,9.5 29,9.5 Z" /></clipPath><clipPath
     clipPathUnits="userSpaceOnUse"
     id="clipPath383-6-3"><path
       style="display:none;fill:#38454f"
       d="m 29,12.716495 c -12.65,0 -23,7.548 -23,15.551001 v 10.714 c 5.594,3.503 14.044,6.735 23.5,6.735 8.909,0 16.924,-2.982 22.5,-6.14 v -11.309 C 52,20.264495 41.65,12.716495 29,12.716495 Z"
       id="path385-5-1" /></clipPath><clipPath
     clipPathUnits="userSpaceOnUse"
     id="clipath_lpe_path-effect471-01"><path
       style="display:block;fill:#38454f"
       d="m 29,12.716495 c -12.65,0 -23,7.548 -23,15.551001 v 10.714 c 5.594,3.503 14.044,6.735 23.5,6.735 8.909,0 16.924,-2.982 22.5,-6.14 v -11.309 C 52,20.264495 41.65,12.716495 29,12.716495 Z"
       id="path473-9" /></clipPath><clipPath
     clipPathUnits="userSpaceOnUse"
     id="clipPath479-5"><path
       id="lpe_path-effect483-7"
       style="fill:#ecf0f1"
       class="powerclip"
       d="M 9.143,1.576 H 27 V 19.5 H 9.143 Z M 29,9.5 C 16.35,9.5 6,18.42 6,27.878 v 12.663 c 5.594,4.14 14.044,7.959 23.5,7.959 8.909,0 16.924,-3.524 22.5,-7.256 V 27.878 C 52,18.42 41.65,9.5 29,9.5 Z" /></clipPath><clipPath
     clipPathUnits="userSpaceOnUse"
     id="clipPath383-7-68"><path
       style="display:none;fill:#38454f"
       d="m 29,12.716495 c -12.65,0 -23,7.548 -23,15.551001 v 10.714 c 5.594,3.503 14.044,6.735 23.5,6.735 8.909,0 16.924,-2.982 22.5,-6.14 v -11.309 C 52,20.264495 41.65,12.716495 29,12.716495 Z"
       id="path385-6-5" /><path
       id="lpe_path-effect387-2-4"
       style="fill:#38454f"
       class="powerclip"
       d="m 1,4.5 h 56 v 49 H 1 Z m 28,8.216495 c -12.65,0 -23,7.548 -23,15.551001 v 10.714 c 5.594,3.503 14.044,6.735 23.5,6.735 8.909,0 16.924,-2.982 22.5,-6.14 v -11.309 C 52,20.264495 41.65,12.716495 29,12.716495 Z" /></clipPath><clipPath
     clipPathUnits="userSpaceOnUse"
     id="clipath_lpe_path-effect503-79"><path
       style="display:none;fill:#38454f"
       d="m 29,12.716495 c -12.65,0 -23,7.548 -23,15.551001 v 10.714 c 5.594,3.503 14.044,6.735 23.5,6.735 8.909,0 16.924,-2.982 22.5,-6.14 v -11.309 C 52,20.264495 41.65,12.716495 29,12.716495 Z"
       id="path505-6" /><path
       id="lpe_path-effect503-66"
       style="fill:#38454f"
       class="powerclip"
       d="m 1,4.5 h 56 v 49 H 1 Z m 28,8.216495 c -12.65,0 -23,7.548 -23,15.551001 v 10.714 c 5.594,3.503 14.044,6.735 23.5,6.735 8.909,0 16.924,-2.982 22.5,-6.14 v -11.309 C 52,20.264495 41.65,12.716495 29,12.716495 Z" /></clipPath></defs><sodipodi:namedview
   id="namedview858"
   pagecolor="#ffffff"
   bordercolor="#666666"
   borderopacity="1.0"
   inkscape:pageshadow="2"
   inkscape:pageopacity="0.0"
   inkscape:pagecheckerboard="0"
   showgrid="false"
   showguides="true"
   inkscape:guide-bbox="true"
   inkscape:zoom="0.24881141"
   inkscape:cx="2168.3089"
   inkscape:cy="1629.7484"
   inkscape:window-width="1708"
   inkscape:window-height="1359"
   inkscape:window-x="1706"
   inkscape:window-y="25"
   inkscape:window-maximized="0"
   inkscape:current-layer="svg856"><sodipodi:guide
     position="2273.551,3423.8324"
     orientation="1,0"
     id="guide3601" /></sodipodi:namedview>
    <g
   transform="matrix(4.16667,0,0,4.16667,0,0)"
   id="g854">
        <path
   d="M525.403,293.05C393.77,293.05 274.175,308.875 185.633,334.665L185.633,554.963C274.175,580.753 393.77,596.577 525.403,596.577C676.06,596.577 810.938,575.848 901.537,543.175L901.537,346.457C810.938,313.781 676.06,293.05 525.403,293.05Z"
   style="fill:rgb(143,30,28);fill-rule:nonzero;"
   id="path824" />
        <path
   d="M907.423,492.442C903.566,481.779 902.794,468.288 906.062,455.28C911.912,431.991 928.483,419.082 943.075,426.447C946.693,428.274 949.849,431.178 952.462,434.865C952.701,434.864 952.94,434.865 953.177,434.881C953.177,434.881 997.729,487.987 956.49,550.884C955.595,554.453 879.956,642.602 862.447,645.408C850.987,647.244 877.338,555.41 907.423,492.442Z"
   style="fill:rgb(143,30,28);fill-rule:nonzero;"
   id="path826" />
        <path
   d="M176.479,482.021C181.779,472.391 183.637,459.233 180.696,445.596C175.43,421.18 156.786,404.486 139.054,408.311C134.656,409.259 130.729,411.383 127.388,414.409C127.106,414.351 126.824,414.296 126.543,414.256C126.543,414.256 70.251,456.208 114.486,528.18C115.291,531.921 198.337,637.018 218.797,643.943C232.188,648.475 207.55,551.418 176.479,482.021Z"
   style="fill:rgb(143,30,28);fill-rule:nonzero;"
   id="path828" />
        <path
   d="M97.467,488.066L97.474,488.081C97.659,488.226 97.831,488.357 97.467,488.066Z"
   style="fill:rgb(227,58,37);fill-rule:nonzero;"
   id="path830" />
        <path
   d="M993.119,412.903C992.239,409.839 991.363,406.777 990.457,403.741L1021.14,359.29C1024.27,354.768 1024.91,348.892 1022.87,343.735C1020.83,338.605 1016.38,334.925 1011.11,334.025L959.224,325.22C957.216,321.118 955.108,317.078 952.994,313.07L974.791,263.167C977.034,258.08 976.56,252.172 973.588,247.559C970.627,242.923 965.598,240.215 960.239,240.426L907.583,242.339C904.856,238.789 902.087,235.271 899.261,231.818L911.362,178.328C912.587,172.895 911.04,167.21 907.259,163.264C903.497,159.332 898.03,157.705 892.833,158.981L841.544,171.589C838.223,168.654 834.845,165.756 831.43,162.916L833.278,108.002C833.476,102.443 830.885,97.161 826.434,94.077C821.988,90.973 816.341,90.504 811.478,92.811L763.631,115.558C759.777,113.348 755.903,111.158 751.987,109.041L743.532,54.926C742.675,49.444 739.147,44.788 734.206,42.661C729.283,40.523 723.638,41.213 719.315,44.469L676.656,76.476C672.456,75.08 668.237,73.743 663.964,72.465L645.578,21.148C643.708,15.919 639.397,12.077 634.14,10.997C628.901,9.926 623.51,11.74 619.877,15.799L583.97,55.971C579.628,55.471 575.285,55.015 570.927,54.639L543.204,7.926C540.394,3.194 535.434,0.314 530.088,0.314C524.754,0.314 519.784,3.194 516.998,7.926L489.265,54.639C484.907,55.015 480.543,55.471 476.209,55.971L440.299,15.799C436.663,11.74 431.252,9.926 426.031,10.997C420.776,12.089 416.458,15.919 414.598,21.148L396.196,72.465C391.936,73.743 387.715,75.092 383.505,76.476L340.861,44.469C336.525,41.203 330.881,40.514 325.945,42.661C321.026,44.788 317.484,49.444 316.632,54.926L308.171,109.041C304.257,111.158 300.382,113.335 296.518,115.558L248.676,92.811C243.818,90.496 238.147,90.973 233.722,94.077C229.277,97.161 226.68,102.443 226.882,108.002L228.717,162.916C225.312,165.756 221.943,168.654 218.605,171.589L167.326,158.981C162.115,157.716 156.656,159.332 152.885,163.264C149.09,167.21 147.553,172.895 148.772,178.328L160.851,231.818C158.049,235.285 155.276,238.789 152.558,242.339L99.903,240.426C94.588,240.269 89.516,242.923 86.547,247.559C83.572,252.172 83.122,258.08 85.336,263.167L107.15,313.07C105.031,317.078 102.926,321.118 100.901,325.22L49.018,334.025C43.747,334.913 39.304,338.591 37.254,343.735C35.217,348.892 35.878,354.768 38.989,359.29L69.679,403.741C69.442,404.525 69.224,405.317 68.989,406.105L52.126,424.017L97.467,488.066C97.467,488.066 532.619,688.798 936.264,491.462C982.372,483.189 993.119,412.903 993.119,412.903Z"
   style="fill:rgb(228,58,37);fill-rule:nonzero;"
   id="path832" />
        <path
   d="M608.303,376.759C608.303,376.759 656.46,324.03 704.618,376.759C704.618,376.759 742.458,447.071 704.618,482.222C704.618,482.222 642.701,531.439 608.303,482.222C608.303,482.222 567.024,443.55 608.303,376.759Z"
   style="fill:rgb(3,4,4);fill-rule:nonzero;"
   id="path834" />
        <path
   d="M664.057,396.32C664.057,416.853 651.954,433.499 637.027,433.499C622.103,433.499 610,416.853 610,396.32C610,375.788 622.103,359.14 637.027,359.14C651.954,359.14 664.057,375.788 664.057,396.32Z"
   style="fill:white;fill-rule:nonzero;"
   id="path836" />
        <path
   d="M393.365,362.361C393.365,362.361 475.973,325.785 498.519,407.423C498.519,407.423 522.137,502.577 430.682,507.948C430.682,507.948 314.06,485.486 393.365,362.361Z"
   style="fill:rgb(3,4,4);fill-rule:nonzero;"
   id="path838" />
        <path
   d="M434.855,397.668C434.855,418.841 422.375,436.014 406.978,436.014C391.587,436.014 379.104,418.841 379.104,397.668C379.104,376.49 391.587,359.322 406.978,359.322C422.375,359.322 434.855,376.49 434.855,397.668Z"
   style="fill:white;fill-rule:nonzero;"
   id="path840" />
        <path
   d="M111.602,499.216C122.569,486.753 149.213,471.659 147.172,452.934C143.519,419.407 115.716,394.935 85.073,398.275C77.473,399.103 70.415,401.567 64.149,405.311C63.687,405.204 63.224,405.1 62.761,405.017C62.761,405.017 -40.87,455.89 18.197,557.674C18.754,562.811 136.045,713.342 168.985,724.805C190.544,732.307 149.074,596.165 111.602,499.216Z"
   style="fill:rgb(228,58,37);fill-rule:nonzero;"
   id="path842" />
        <path
   d="M953.549,494.673C940.856,483.973 907.387,474.255 906.629,455.435C905.273,421.737 929.141,393.414 959.941,392.175C967.579,391.867 974.925,393.258 981.676,396.032C982.118,395.858 982.56,395.686 983.005,395.535C983.005,395.535 1093.03,430.486 1049.7,539.901C1049.91,545.064 956.232,711.317 925.355,727.536C905.146,738.151 930.861,596.105 953.549,494.673Z"
   style="fill:rgb(228,58,37);fill-rule:nonzero;"
   id="path844" />
        <path
   d="M191.142,495.558C191.142,495.558 189.759,632.854 324.308,663.49L352.362,607.127C352.362,607.127 254.867,616.558 247.367,495.558L191.142,495.558Z"
   style="fill:rgb(228,58,37);fill-rule:nonzero;"
   id="path846" />
        <path
   d="M876.362,495.558C876.362,495.558 877.744,632.854 743.195,663.49L715.141,607.127C715.141,607.127 812.636,616.558 820.136,495.558L876.362,495.558Z"
   style="fill:rgb(228,58,37);fill-rule:nonzero;"
   id="path848" />
        <path
   d="M779.167,635.591C758.917,586.649 693.572,567.218 633.216,592.191C580.09,614.172 548.579,663.223 555.592,708.036C597.538,707.384 642.532,704.665 686.328,698.318C686.328,698.318 660.491,740.081 622.471,776.529C648.037,783.128 677.854,781.297 706.547,769.425C766.904,744.452 799.417,684.532 779.167,635.591Z"
   style="fill:rgb(228,58,37);fill-rule:nonzero;"
   id="path850" />
        <path
   d="M404.746,695.984C404.746,695.984 459.949,703.279 535.416,705.14C542.026,657.629 506.036,607.348 448.615,587.897C385.177,566.409 319.626,590.689 302.201,642.129C284.776,693.569 322.077,752.689 385.515,774.178C413.636,783.704 442.168,784.227 466.744,777.385C429.833,740.88 404.746,695.984 404.746,695.984Z"
   style="fill:rgb(228,58,37);fill-rule:nonzero;"
   id="path852" />
    </g>
<g
   id="g5101"
   transform="matrix(42.125059,0,0,42.125059,1051.9243,443.08624)"><path
     id="path50"
     clip-path="url(#clipPath340-3)"
     style="fill:#d1d4d1"
     d="m 29,2.5 c -0.335,0 -0.668,0.010391 -1,0.025391 -4.446,0.193 -8.573391,1.6627813 -12.025391,4.0507813 -0.635,0.439 -1.246031,0.9092031 -1.832031,1.4082031 C 9.1705781,12.211375 6,18.502 6,25.5 v 13.482422 c 5.594,5.536 14.247125,6.773437 23.703125,6.773437 8.909,0 16.720875,-1.186687 22.296875,-6.179687 V 25.5 C 52,18.502 48.829422,12.211375 43.857422,7.984375 43.270422,7.485375 42.659391,7.0151719 42.025391,6.5761719 38.573391,4.1881719 34.446,2.7173906 30,2.5253906 29.668,2.5103906 29.335,2.5 29,2.5 Z m -14,6 c 0.172313,0 0.341891,0.00829 0.509766,0.025391 0.167874,0.017101 0.333501,0.042814 0.496093,0.076172 0.162593,0.033358 0.322049,0.074276 0.478516,0.1230469 0.156467,0.048771 0.311441,0.1046289 0.460937,0.1679687 0.149497,0.06334 0.293866,0.1338733 0.435547,0.2109375 0.141682,0.077064 0.279087,0.1620088 0.41211,0.2519532 0.133022,0.089944 0.261246,0.1851291 0.384765,0.2871093 0.12352,0.1019802 0.242297,0.2110469 0.355469,0.3242188 0.113172,0.1131726 0.222239,0.2319496 0.324219,0.3554696 0.10198,0.123519 0.197165,0.251743 0.287109,0.384765 0.08995,0.133023 0.174889,0.270428 0.251953,0.41211 0.07706,0.141681 0.147598,0.28605 0.210938,0.435547 0.06334,0.149496 0.119197,0.30447 0.167969,0.460937 0.04877,0.156467 0.08969,0.315923 0.123047,0.478516 0.03336,0.162592 0.05907,0.328219 0.07617,0.496093 C 19.991711,13.158109 20,13.327687 20,13.5 c 0,-0.172313 -0.0083,-0.341891 -0.02539,-0.509766 -0.0171,-0.167874 -0.04281,-0.333501 -0.07617,-0.496093 -0.03336,-0.162593 -0.07428,-0.322049 -0.123047,-0.478516 -0.04877,-0.156467 -0.104629,-0.311441 -0.167969,-0.460937 -0.06334,-0.149497 -0.133873,-0.293866 -0.210938,-0.435547 -0.07706,-0.141682 -0.162008,-0.279087 -0.251953,-0.41211 -0.08994,-0.133022 -0.185129,-0.261246 -0.287109,-0.384765 -0.10198,-0.12352 -0.211047,-0.242297 -0.324219,-0.3554691 C 18.420031,9.853625 18.301254,9.7445583 18.177734,9.6425781 18.054215,9.5405979 17.925991,9.4454131 17.792969,9.3554688 17.659946,9.2655244 17.522541,9.1805798 17.380859,9.1035156 17.239178,9.0264514 17.094809,8.955918 16.945312,8.8925781 16.795816,8.8292383 16.640842,8.7733806 16.484375,8.7246094 16.327908,8.6758381 16.168452,8.6349209 16.005859,8.6015625 15.843267,8.5682041 15.67764,8.5424919 15.509766,8.5253906 15.341891,8.5082893 15.172313,8.5 15,8.5 Z m 28,0 c -0.172312,0 -0.341891,0.00829 -0.509766,0.025391 -0.167874,0.017101 -0.333501,0.042814 -0.496093,0.076172 -0.162593,0.033358 -0.322049,0.074276 -0.478516,0.1230469 -0.156467,0.048771 -0.311441,0.1046289 -0.460937,0.1679687 -0.149497,0.06334 -0.293866,0.1338733 -0.435547,0.2109375 -0.141682,0.077064 -0.279087,0.1620088 -0.41211,0.2519532 -0.133022,0.089944 -0.261246,0.1851291 -0.384765,0.2871093 -0.12352,0.1019802 -0.242297,0.2110469 -0.355469,0.3242188 -0.113172,0.1131726 -0.222239,0.2319496 -0.324219,0.3554696 -0.10198,0.123519 -0.197165,0.251743 -0.287109,0.384765 -0.08995,0.133023 -0.174889,0.270428 -0.251953,0.41211 -0.07706,0.141681 -0.147598,0.28605 -0.210938,0.435547 -0.06334,0.149496 -0.119197,0.30447 -0.167969,0.460937 -0.04877,0.156467 -0.08969,0.315923 -0.123047,0.478516 -0.03336,0.162592 -0.05907,0.328219 -0.07617,0.496093 C 38.008289,13.158109 38,13.327687 38,13.5 c 0,-0.172313 0.0083,-0.341891 0.02539,-0.509766 0.0171,-0.167874 0.04281,-0.333501 0.07617,-0.496093 0.03336,-0.162593 0.07428,-0.322049 0.123047,-0.478516 0.04877,-0.156467 0.104629,-0.311441 0.167969,-0.460937 0.06334,-0.149497 0.133873,-0.293866 0.210938,-0.435547 0.07706,-0.141682 0.162008,-0.279087 0.251953,-0.41211 0.08994,-0.133022 0.185129,-0.261246 0.287109,-0.384765 0.10198,-0.12352 0.211047,-0.242297 0.324219,-0.3554691 0.113172,-0.1131719 0.231949,-0.2222386 0.355469,-0.3242188 0.123519,-0.1019802 0.251743,-0.197165 0.384765,-0.2871093 0.133023,-0.089944 0.270428,-0.174889 0.41211,-0.2519532 0.141681,-0.077064 0.28605,-0.1475976 0.435547,-0.2109375 0.149496,-0.06334 0.30447,-0.1191975 0.460937,-0.1679687 0.156467,-0.048771 0.315923,-0.089689 0.478516,-0.1230469 0.162592,-0.033358 0.328219,-0.059071 0.496093,-0.076172 C 42.658109,8.5082893 42.827688,8.5 43,8.5 Z" /><path
     style="fill:#ecf0f1"
     d="M 3.658,23.529 C 2.675,23.694 2,24.624 2,25.622 v 2.489 C 2,28.326 1.826,28.5 1.611,28.5 v 0 C 0.721,28.5 0,29.221 0,30.111 v 3.168 C 0,33.953 0.547,34.5 1.221,34.5 H 1.61 C 1.826,34.5 2,34.674 2,34.889 v 2.489 c 0,0.997 0.675,1.927 1.658,2.093 C 4.907,39.681 6,38.712 6,37.5 v -12 C 6,24.288 4.907,23.319 3.658,23.529 Z"
     id="path60" /><path
     style="fill:#a5a5a4"
     d="M 3,32.5 C 2.74,32.5 2.48,32.39 2.29,32.21 2.11,32.02 2,31.76 2,31.5 2,31.24 2.11,30.98 2.29,30.79 2.67,30.42 3.34,30.42 3.71,30.79 3.89,30.98 4,31.24 4,31.5 4,31.76 3.89,32.02 3.71,32.21 3.52,32.39 3.26,32.5 3,32.5 Z"
     id="path62" /><path
     style="fill:#ecf0f1"
     d="M 54.342,39.471 C 55.325,39.306 56,38.376 56,37.378 V 35.267 C 56,34.843 56.343,34.5 56.767,34.5 h 0.012 C 57.453,34.5 58,33.953 58,33.279 V 29.721 C 58,29.047 57.453,28.5 56.779,28.5 H 56.767 C 56.343,28.5 56,28.157 56,27.733 V 25.622 C 56,24.625 55.325,23.695 54.342,23.529 53.093,23.319 52,24.288 52,25.5 v 12 c 0,1.212 1.093,2.181 2.342,1.971 z"
     id="path64" /><path
     style="fill:#a5a5a4"
     d="m 55,32.5 c -0.26,0 -0.52,-0.11 -0.71,-0.29 C 54.11,32.02 54,31.77 54,31.5 c 0,-0.27 0.11,-0.52 0.29,-0.71 0.37,-0.37 1.05,-0.37 1.42,0 0.18,0.19 0.29,0.45 0.29,0.71 0,0.26 -0.11,0.52 -0.29,0.71 -0.19,0.18 -0.45,0.29 -0.71,0.29 z"
     id="path66" /><path
     style="fill:#4b5e6b;fill-opacity:0.603239"
     d="m 29,12.716496 c -12.65,0 -23,7.548 -23,15.551 v 10.714 c 5.594,3.503 14.044,6.735 23.5,6.735 8.909,0 16.924,-2.982 22.5,-6.14 v -11.309 c 0,-8.003 -10.35,-15.551 -23,-15.551 z"
     id="path72" /><g
     id="g86">
</g><g
     id="g88">
</g><g
     id="g90">
</g><g
     id="g92">
</g><g
     id="g94">
</g><g
     id="g96">
</g><g
     id="g98">
</g><g
     id="g100">
</g><g
     id="g102">
</g><g
     id="g104">
</g><g
     id="g106">
</g><g
     id="g108">
</g><g
     id="g110">
</g><g
     id="g112">
</g><g
     id="g114">
</g><path
     style="fill:#ecf0f1"
     d="M 29,9.5 C 16.35,9.5 6,18.42 6,27.878 v 12.663 c 5.594,4.14 14.044,7.959 23.5,7.959 8.909,0 16.924,-3.524 22.5,-7.256 V 27.878 C 52,18.42 41.65,9.5 29,9.5 Z"
     id="path70"
     clip-path="url(#clipath_lpe_path-effect503-79)"
     inkscape:original-d="M 29,9.5 C 16.35,9.5 6,18.42 6,27.878 v 12.663 c 5.594,4.14 14.044,7.959 23.5,7.959 8.909,0 16.924,-3.524 22.5,-7.256 V 27.878 C 52,18.42 41.65,9.5 29,9.5 Z"
     inkscape:path-effect="#path-effect503" /></g></svg>
